<svg width="38" height="38" viewBox="0 0 38 38" fill="none" xmlns="http://www.w3.org/2000/svg">
<path d="M19.0079 27.1542H10.6954C10.3805 27.1542 10.0784 27.2793 9.85575 27.502C9.63305 27.7247 9.50793 28.0267 9.50793 28.3417V35.4667C9.50793 35.7816 9.63305 36.0837 9.85575 36.3064C10.0784 36.5291 10.3805 36.6542 10.6954 36.6542H17.8204C18.1354 36.6542 18.4374 36.5291 18.6601 36.3064C18.8828 36.0837 19.0079 35.7816 19.0079 35.4667V27.1542Z" stroke="white" stroke-width="2" stroke-linecap="round" stroke-linejoin="round"/>
<path d="M27.3204 27.1542H19.0079V35.4667C19.0079 35.7816 19.133 36.0837 19.3557 36.3064C19.5784 36.5291 19.8805 36.6542 20.1954 36.6542H27.3204C27.6354 36.6542 27.9374 36.5291 28.1601 36.3064C28.3828 36.0837 28.5079 35.7816 28.5079 35.4667V28.3417C28.5079 28.0267 28.3828 27.7247 28.1601 27.502C27.9374 27.2793 27.6354 27.1542 27.3204 27.1542ZM22.5704 17.6542H15.4454C15.1305 17.6542 14.8284 17.7793 14.6057 18.002C14.383 18.2247 14.2579 18.5267 14.2579 18.8417V27.1542H23.7579V18.8417C23.7579 18.5267 23.6328 18.2247 23.4101 18.002C23.1874 17.7793 22.8854 17.6542 22.5704 17.6542Z" stroke="white" stroke-width="2" stroke-linecap="round" stroke-linejoin="round"/>
<path d="M36.8204 36.6542V11.9542C36.8206 11.5236 36.7037 11.1011 36.4823 10.7318C36.2608 10.3626 35.9432 10.0605 35.5633 9.85782L20.1258 1.62449C19.7819 1.44124 19.3983 1.3454 19.0087 1.3454C18.6191 1.3454 18.2355 1.44124 17.8917 1.62449L2.45418 9.85782C2.074 10.0603 1.75602 10.3623 1.5343 10.7315C1.31257 11.1008 1.19543 11.5234 1.19543 11.9542V36.6542" stroke="white" stroke-width="2" stroke-linecap="round" stroke-linejoin="round"/>
</svg>
