<svg width="37" height="42" viewBox="0 0 37 42" fill="none" xmlns="http://www.w3.org/2000/svg">
<path d="M8 20H24V24H8V20ZM12 36H4V4H18V14H28V20.2L32 16.2V12L20 0H4C2.93913 0 1.92172 0.421427 1.17157 1.17157C0.421427 1.92172 0 2.93913 0 4V36C0 37.0609 0.421427 38.0783 1.17157 38.8284C1.92172 39.5786 2.93913 40 4 40H12V36ZM8 32H16.2L18 30.2V28H8V32ZM32.4 22C32.6 22 33 22.2 33.2 22.4L35.8 25C36.2 25.4 36.2 26.2 35.8 26.6L33.8 28.6L29.6 24.4L31.6 22.4C31.8 22.2 32 22 32.4 22ZM32.4 29.8L20.2 42H16V37.8L28.2 25.6L32.4 29.8Z" fill="#A9843E"/>
</svg>
