<svg width="38" height="38" viewBox="0 0 38 38" fill="none" xmlns="http://www.w3.org/2000/svg">
<path d="M8.44442 8.65558H25.3333V10.3445H8.44442V8.65558ZM8.44442 17.1H16.9796V18.7889H8.44442V17.1ZM24.6768 12.8778H8.44442V14.5667H22.9889L24.6768 12.8778ZM13.5048 30.6871C13.7886 31.0125 14.1488 31.2624 14.553 31.4142C14.9572 31.566 15.3928 31.615 15.8206 31.5569H24.0582C24.2542 31.5569 24.4421 31.4791 24.5807 31.3405C24.7192 31.2019 24.7971 31.014 24.7971 30.818C24.7971 30.6221 24.7192 30.4341 24.5807 30.2955C24.4421 30.157 24.2542 30.0791 24.0582 30.0791H15.8206C14.859 30.0622 15.03 29.2273 15.1651 28.9687C15.3409 28.665 15.4781 28.3405 15.5736 28.0029C15.6373 27.731 15.6079 27.4457 15.4899 27.1926C15.372 26.9396 15.1725 26.7335 14.9234 26.6074C14.5238 26.4276 14.0763 26.3836 13.6493 26.4821C13.2223 26.5807 12.8393 26.8163 12.559 27.1531C12.1959 27.5279 11.6913 28.101 11.2079 28.6584C11.5066 27.4877 11.894 25.9857 12.274 24.5206C12.3829 24.1867 12.3612 23.824 12.2133 23.5056C12.0654 23.1871 11.8023 22.9365 11.477 22.8042C11.1168 22.6806 10.7231 22.6983 10.3753 22.8537C10.0276 23.009 9.75172 23.2905 9.60342 23.6413C9.14742 24.5185 5.53742 30.5679 5.50153 30.6291C5.45177 30.7124 5.4189 30.8047 5.40481 30.9007C5.39071 30.9967 5.39567 31.0945 5.41939 31.1886C5.46729 31.3787 5.58873 31.5419 5.75698 31.6424C5.92523 31.7429 6.12651 31.7725 6.31655 31.7246C6.50659 31.6767 6.66981 31.5552 6.77031 31.387C6.90542 31.16 9.78709 26.333 10.6959 24.7211C10.0119 27.36 9.25826 30.2966 9.21392 30.5605C9.1642 30.7545 9.17926 30.9594 9.25682 31.1441C9.33438 31.3287 9.47018 31.483 9.64353 31.5833C9.83675 31.6791 10.0564 31.7079 10.2678 31.6651C10.4792 31.6223 10.6703 31.5103 10.811 31.3469C10.944 31.2265 11.1931 30.9405 11.8211 30.2111C12.4063 29.5228 13.0056 28.8468 13.6188 28.1834C13.8489 27.9406 13.9882 28.0482 13.8531 28.2868C13.5887 28.6207 13.4172 29.0186 13.3561 29.4401C13.2949 29.8616 13.3462 30.2918 13.5048 30.6871Z" fill="white"/>
<path d="M29.5555 22.9003V33.7778H4.2222V4.2222H29.5555V9.49258L30.9594 8.0887C31.1755 7.87553 31.4124 7.68457 31.6666 7.5187V3.16664C31.6666 2.88669 31.5554 2.6182 31.3575 2.42025C31.1595 2.22229 30.891 2.11108 30.6111 2.11108H3.16664C2.88669 2.11108 2.6182 2.22229 2.42025 2.42025C2.22229 2.6182 2.11108 2.88669 2.11108 3.16664V34.8333C2.11108 35.1133 2.22229 35.3817 2.42025 35.5797C2.6182 35.7777 2.88669 35.8889 3.16664 35.8889H30.6111C30.891 35.8889 31.1595 35.7777 31.3575 35.5797C31.5554 35.3817 31.6666 35.1133 31.6666 34.8333V22.6174C31.0195 22.9613 30.2704 23.0617 29.5555 22.9003Z" fill="white"/>
<path d="M36.024 12.52L35.4719 11.9679C35.7537 11.5949 35.8963 11.1351 35.8751 10.6682C35.8539 10.2012 35.6702 9.75625 35.3558 9.41029C34.9472 9.05017 34.4129 8.86608 33.8692 8.89811C33.3255 8.93014 32.8165 9.17569 32.453 9.58129L19.2322 22.8L18.3487 26.1166C18.3347 26.16 18.333 26.2064 18.3438 26.2507C18.3546 26.295 18.3774 26.3354 18.4097 26.3676C18.4421 26.3997 18.4827 26.4222 18.5271 26.4327C18.5714 26.4432 18.6178 26.4412 18.6611 26.4269L21.9661 25.5328L34.3076 13.1913L34.8291 13.7138C34.8656 13.7501 34.8946 13.7933 34.9144 13.8408C34.9342 13.8884 34.9444 13.9394 34.9444 13.9909C34.9444 14.0424 34.9342 14.0934 34.9144 14.1409C34.8946 14.1885 34.8656 14.2317 34.8291 14.268L29.6389 19.4581C29.4806 19.6166 29.3917 19.8314 29.3918 20.0554C29.3919 20.2794 29.481 20.4942 29.6394 20.6525C29.7979 20.8108 30.0127 20.8997 30.2367 20.8996C30.4607 20.8995 30.6755 20.8104 30.8338 20.652L36.024 15.4618C36.2174 15.2687 36.3708 15.0393 36.4755 14.7868C36.5802 14.5343 36.6341 14.2637 36.6341 13.9903C36.6341 13.717 36.5802 13.4464 36.4755 13.1939C36.3708 12.9414 36.2174 12.712 36.024 12.5189" fill="white"/>
</svg>
