<svg width="23" height="23" viewBox="0 0 23 23" fill="none" xmlns="http://www.w3.org/2000/svg">
<path d="M20.907 4.77538C20.847 4.59082 20.7301 4.42998 20.5731 4.31586C20.4161 4.20174 20.2271 4.14018 20.033 4.14H17.94V0.92C17.94 0.411125 17.5289 0 17.02 0H5.98C5.47113 0 5.06 0.411125 5.06 0.92V4.14H2.967C2.77282 4.13974 2.58356 4.20112 2.42649 4.31531C2.26943 4.42949 2.15266 4.59058 2.093 4.77538L0 11.2125V22.08C0 22.5889 0.411125 23 0.92 23H22.08C22.5889 23 23 22.5889 23 22.08V11.2125L20.907 4.77538ZM7.13 2.07H15.87V4.14H7.13V2.07ZM20.93 20.93H2.07V11.5403L3.80363 6.21H19.1964L20.93 11.5403V20.93ZM15.525 13.225H12.42V10.12C12.42 9.9935 12.3165 9.89 12.19 9.89H10.81C10.6835 9.89 10.58 9.9935 10.58 10.12V13.225H7.475C7.3485 13.225 7.245 13.3285 7.245 13.455V14.835C7.245 14.9615 7.3485 15.065 7.475 15.065H10.58V18.17C10.58 18.2965 10.6835 18.4 10.81 18.4H12.19C12.3165 18.4 12.42 18.2965 12.42 18.17V15.065H15.525C15.6515 15.065 15.755 14.9615 15.755 14.835V13.455C15.755 13.3285 15.6515 13.225 15.525 13.225Z" fill="black"/>
</svg>
