<svg width="48" height="48" viewBox="0 0 48 48" fill="none" xmlns="http://www.w3.org/2000/svg">
<path d="M8 28H12.79C13.378 28 13.958 28.132 14.484 28.388L18.568 30.364C19.094 30.618 19.674 30.75 20.264 30.75H22.348C24.364 30.75 26 32.332 26 34.284C26 34.364 25.946 34.432 25.868 34.454L20.786 35.86C19.8741 36.1119 18.9017 36.0238 18.05 35.612L13.684 33.5" stroke="#A9843E" stroke-width="4" stroke-linecap="round" stroke-linejoin="round"/>
<path d="M26 33L35.186 30.178C35.9857 29.9326 36.8425 29.9461 37.6341 30.2166C38.4257 30.487 39.1116 31.0006 39.594 31.684C40.332 32.704 40.032 34.168 38.956 34.788L23.926 43.462C23.456 43.7339 22.9356 43.9073 22.3965 43.9716C21.8573 44.0359 21.3107 43.9898 20.79 43.836L8 40.04" stroke="#A9843E" stroke-width="4" stroke-linecap="round" stroke-linejoin="round"/>
<path d="M34.66 9.00001C35.9652 11.2956 36.3094 14.0142 35.6175 16.5627C34.9256 19.1111 33.2538 21.2824 30.9669 22.6028C28.6801 23.9231 25.9638 24.2853 23.4108 23.6104C20.8579 22.9354 18.6755 21.2781 17.34 19M34.66 9.00001C34.0082 7.85356 33.136 6.84736 32.0937 6.03934C31.0515 5.23132 29.8597 4.63745 28.5869 4.29191C27.3142 3.94637 25.9857 3.856 24.6779 4.02598C23.3701 4.19597 22.1088 4.62296 20.9667 5.28238C19.8246 5.94179 18.8242 6.8206 18.0231 7.86822C17.2221 8.91583 16.6361 10.1116 16.299 11.3865C15.9619 12.6615 15.8804 13.9906 16.059 15.2973C16.2377 16.6039 16.673 17.8623 17.34 19M34.66 9.00001L17.34 19" stroke="#A9843E" stroke-width="4"/>
</svg>
