<svg width="25" height="25" viewBox="0 0 25 25" fill="none" xmlns="http://www.w3.org/2000/svg">
<path d="M8.35299 7.647C8.25868 7.55592 8.13238 7.50552 8.00128 7.50666C7.87019 7.5078 7.74478 7.56039 7.65208 7.65309C7.55937 7.74579 7.50679 7.8712 7.50565 8.0023C7.50451 8.1334 7.55491 8.2597 7.64598 8.354L11.802 12.5L7.64598 16.646C7.5995 16.6924 7.56261 16.7475 7.53742 16.8082C7.51224 16.8689 7.49925 16.9339 7.49921 16.9996C7.49911 17.1323 7.55173 17.2596 7.64549 17.3535C7.73924 17.4474 7.86645 17.5002 7.99913 17.5003C8.13181 17.5004 8.2591 17.4478 8.35299 17.354L12.863 12.854C12.9567 12.7602 13.0094 12.6331 13.0094 12.5005C13.0094 12.3679 12.9567 12.2408 12.863 12.147L8.35299 7.647ZM17 7.5C16.8674 7.5 16.7402 7.55268 16.6464 7.64645C16.5527 7.74021 16.5 7.86739 16.5 8V17C16.5 17.1326 16.5527 17.2598 16.6464 17.3536C16.7402 17.4473 16.8674 17.5 17 17.5C17.1326 17.5 17.2598 17.4473 17.3535 17.3536C17.4473 17.2598 17.5 17.1326 17.5 17V8C17.5 7.86739 17.4473 7.74021 17.3535 7.64645C17.2598 7.55268 17.1326 7.5 17 7.5Z" fill="#A9843E"/>
</svg>
