<svg width="24" height="24" viewBox="0 0 24 24" fill="none" xmlns="http://www.w3.org/2000/svg">
<path d="M6.9 23C4.96204 23 3.32733 22.3347 1.99589 21.0041C0.664445 19.6735 -0.000851035 18.0388 8.16994e-07 16.1C8.16994e-07 15.2907 0.138427 14.5028 0.415279 13.7361C0.692131 12.9694 1.08611 12.2773 1.59722 11.6597L6.13333 6.19722L3.03472 0H19.9653L16.8667 6.19722L21.4028 11.6597C21.9139 12.2773 22.3079 12.9694 22.5847 13.7361C22.8616 14.5028 23 15.2907 23 16.1C23 18.038 22.3292 19.6727 20.9875 21.0041C19.6458 22.3356 18.0167 23.0009 16.1 23H6.9ZM11.5 16.6111C10.7972 16.6111 10.1958 16.3611 9.69578 15.8611C9.19574 15.361 8.9453 14.7592 8.94445 14.0556C8.94359 13.3519 9.19404 12.7505 9.69578 12.2513C10.1975 11.7521 10.7989 11.5017 11.5 11.5C12.2011 11.4983 12.8029 11.7487 13.3055 12.2513C13.8081 12.7539 14.0581 13.3553 14.0556 14.0556C14.053 14.7558 13.803 15.3576 13.3055 15.8611C12.808 16.3645 12.2062 16.6145 11.5 16.6111ZM8.46528 5.11111H14.5347L15.8125 2.55556H7.1875L8.46528 5.11111ZM6.9 20.4444H16.1C17.3139 20.4444 18.3417 20.0241 19.1833 19.1833C20.0249 18.3425 20.4453 17.3147 20.4444 16.1C20.4444 15.5889 20.3537 15.094 20.1723 14.6152C19.9908 14.1365 19.7408 13.705 19.4222 13.3208L14.7264 7.66667H8.30556L3.57778 13.2889C3.25833 13.6722 3.00832 14.1088 2.82772 14.5986C2.64713 15.0884 2.55641 15.5889 2.55556 16.1C2.55556 17.3139 2.97637 18.3416 3.818 19.1833C4.65963 20.0249 5.68696 20.4453 6.9 20.4444Z" fill="#081D0C"/>
</svg>
