<svg width="38" height="38" viewBox="0 0 38 38" fill="none" xmlns="http://www.w3.org/2000/svg">
<path d="M34.8334 7.91638C35.2531 7.91638 35.6556 8.08352 35.9525 8.38025C36.2494 8.67718 36.4164 9.08044 36.4164 9.50037V15.8334C36.4136 16.8133 36.1082 17.7684 35.5414 18.5677C34.9745 19.367 34.1742 19.9715 33.2504 20.2982V34.8334C33.2504 35.2531 33.0832 35.6556 32.7865 35.9525C32.4896 36.2494 32.0863 36.4164 31.6664 36.4164H6.33337C5.91345 36.4164 5.51117 36.2494 5.21423 35.9525C4.9173 35.6556 4.75037 35.2533 4.75037 34.8334V20.2982C3.82641 19.9716 3.0253 19.3671 2.45837 18.5677C1.89159 17.7684 1.58613 16.8132 1.58337 15.8334V9.50037C1.58337 9.08044 1.75031 8.67718 2.04724 8.38025C2.34408 8.08349 2.74665 7.91647 3.16638 7.91638H34.8334ZM28.5004 19.348C27.6295 20.127 26.5018 20.558 25.3334 20.558C24.165 20.558 23.0373 20.127 22.1664 19.348C21.2956 20.1269 20.1686 20.5579 19.0004 20.558C17.832 20.558 16.7042 20.127 15.8334 19.348C14.9625 20.127 13.8348 20.558 12.6664 20.558C11.4981 20.5579 10.3712 20.1269 9.50037 19.348C9.03523 19.759 8.49789 20.0812 7.91638 20.2982V33.2504H12.6664V30.0834C12.6664 28.4037 13.3341 26.7926 14.5219 25.6049C15.7096 24.4172 17.3207 23.7504 19.0004 23.7504C20.6798 23.7505 22.2903 24.4174 23.4779 25.6049C24.6656 26.7926 25.3334 28.4037 25.3334 30.0834V33.2504H30.0834V20.2982C29.5019 20.0812 28.9655 19.759 28.5004 19.348ZM19.0004 26.9164C18.1606 26.9164 17.355 27.2504 16.7611 27.8441C16.1672 28.438 15.8334 29.2435 15.8334 30.0834V33.2504H22.1664V30.0834C22.1664 29.2436 21.8334 28.438 21.2396 27.8441C20.6458 27.2503 19.8401 26.9165 19.0004 26.9164ZM4.75037 11.0834V15.8334C4.75037 16.2533 4.9173 16.6556 5.21423 16.9525C5.51117 17.2494 5.91345 17.4164 6.33337 17.4164C6.7533 17.4164 7.15558 17.2494 7.45251 16.9525C7.74945 16.6556 7.91638 16.2533 7.91638 15.8334V11.0834H4.75037ZM11.0834 11.0834V15.8334C11.0834 16.2532 11.2504 16.6556 11.5472 16.9525C11.8441 17.2494 12.2466 17.4163 12.6664 17.4164C13.0863 17.4164 13.4896 17.2494 13.7865 16.9525C14.0832 16.6556 14.2504 16.2531 14.2504 15.8334V11.0834H11.0834ZM17.4164 11.0834V15.8334C17.4164 16.2531 17.5835 16.6556 17.8802 16.9525C18.1772 17.2494 18.5804 17.4164 19.0004 17.4164C19.4202 17.4163 19.8227 17.2494 20.1195 16.9525C20.4163 16.6556 20.5834 16.2532 20.5834 15.8334V11.0834H17.4164ZM23.7504 11.0834V15.8334C23.7504 16.2533 23.9173 16.6556 24.2142 16.9525C24.5112 17.2494 24.9134 17.4164 25.3334 17.4164C25.7533 17.4164 26.1556 17.2494 26.4525 16.9525C26.7494 16.6556 26.9164 16.2533 26.9164 15.8334V11.0834H23.7504ZM30.0834 11.0834V15.8334C30.0834 16.2532 30.2504 16.6556 30.5472 16.9525C30.8441 17.2494 31.2466 17.4163 31.6664 17.4164C32.0863 17.4164 32.4896 17.2494 32.7865 16.9525C33.0832 16.6556 33.2504 16.2531 33.2504 15.8334V11.0834H30.0834ZM31.6664 1.58337C32.0863 1.58337 32.4896 1.75031 32.7865 2.04724C33.0833 2.34408 33.2503 2.74665 33.2504 3.16638C33.2504 3.58631 33.0834 3.98957 32.7865 4.2865C32.4896 4.58343 32.0863 4.75037 31.6664 4.75037H6.80798C6.38826 4.75026 5.98567 4.58326 5.68884 4.2865C5.39191 3.98957 5.22498 3.58631 5.22498 3.16638C5.22506 2.74659 5.39201 2.34409 5.68884 2.04724C5.98568 1.7504 6.3882 1.58348 6.80798 1.58337H31.6664Z" fill="white"/>
<path d="M34.8334 7.91638C35.2531 7.91638 35.6556 8.08352 35.9525 8.38025C36.2494 8.67718 36.4164 9.08044 36.4164 9.50037V15.8334C36.4136 16.8133 36.1082 17.7684 35.5414 18.5677C34.9745 19.367 34.1742 19.9715 33.2504 20.2982V34.8334C33.2504 35.2531 33.0832 35.6556 32.7865 35.9525C32.4896 36.2494 32.0863 36.4164 31.6664 36.4164H6.33337C5.91345 36.4164 5.51117 36.2494 5.21423 35.9525C4.9173 35.6556 4.75037 35.2533 4.75037 34.8334V20.2982C3.82641 19.9716 3.0253 19.3671 2.45837 18.5677C1.89159 17.7684 1.58613 16.8132 1.58337 15.8334V9.50037C1.58337 9.08044 1.75031 8.67718 2.04724 8.38025C2.34408 8.08349 2.74665 7.91647 3.16638 7.91638H34.8334ZM28.5004 19.348C27.6295 20.127 26.5018 20.558 25.3334 20.558C24.165 20.558 23.0373 20.127 22.1664 19.348C21.2956 20.1269 20.1686 20.5579 19.0004 20.558C17.832 20.558 16.7042 20.127 15.8334 19.348C14.9625 20.127 13.8348 20.558 12.6664 20.558C11.4981 20.5579 10.3712 20.1269 9.50037 19.348C9.03523 19.759 8.49789 20.0812 7.91638 20.2982V33.2504H12.6664V30.0834C12.6664 28.4037 13.3341 26.7926 14.5219 25.6049C15.7096 24.4172 17.3207 23.7504 19.0004 23.7504C20.6798 23.7505 22.2903 24.4174 23.4779 25.6049C24.6656 26.7926 25.3334 28.4037 25.3334 30.0834V33.2504H30.0834V20.2982C29.5019 20.0812 28.9655 19.759 28.5004 19.348ZM19.0004 26.9164C18.1606 26.9164 17.355 27.2504 16.7611 27.8441C16.1672 28.438 15.8334 29.2435 15.8334 30.0834V33.2504H22.1664V30.0834C22.1664 29.2436 21.8334 28.438 21.2396 27.8441C20.6458 27.2503 19.8401 26.9165 19.0004 26.9164ZM4.75037 11.0834V15.8334C4.75037 16.2533 4.9173 16.6556 5.21423 16.9525C5.51117 17.2494 5.91345 17.4164 6.33337 17.4164C6.7533 17.4164 7.15558 17.2494 7.45251 16.9525C7.74945 16.6556 7.91638 16.2533 7.91638 15.8334V11.0834H4.75037ZM11.0834 11.0834V15.8334C11.0834 16.2532 11.2504 16.6556 11.5472 16.9525C11.8441 17.2494 12.2466 17.4163 12.6664 17.4164C13.0863 17.4164 13.4896 17.2494 13.7865 16.9525C14.0832 16.6556 14.2504 16.2531 14.2504 15.8334V11.0834H11.0834ZM17.4164 11.0834V15.8334C17.4164 16.2531 17.5835 16.6556 17.8802 16.9525C18.1772 17.2494 18.5804 17.4164 19.0004 17.4164C19.4202 17.4163 19.8227 17.2494 20.1195 16.9525C20.4163 16.6556 20.5834 16.2532 20.5834 15.8334V11.0834H17.4164ZM23.7504 11.0834V15.8334C23.7504 16.2533 23.9173 16.6556 24.2142 16.9525C24.5112 17.2494 24.9134 17.4164 25.3334 17.4164C25.7533 17.4164 26.1556 17.2494 26.4525 16.9525C26.7494 16.6556 26.9164 16.2533 26.9164 15.8334V11.0834H23.7504ZM30.0834 11.0834V15.8334C30.0834 16.2532 30.2504 16.6556 30.5472 16.9525C30.8441 17.2494 31.2466 17.4163 31.6664 17.4164C32.0863 17.4164 32.4896 17.2494 32.7865 16.9525C33.0832 16.6556 33.2504 16.2531 33.2504 15.8334V11.0834H30.0834ZM31.6664 1.58337C32.0863 1.58337 32.4896 1.75031 32.7865 2.04724C33.0833 2.34408 33.2503 2.74665 33.2504 3.16638C33.2504 3.58631 33.0834 3.98957 32.7865 4.2865C32.4896 4.58343 32.0863 4.75037 31.6664 4.75037H6.80798C6.38826 4.75026 5.98567 4.58326 5.68884 4.2865C5.39191 3.98957 5.22498 3.58631 5.22498 3.16638C5.22506 2.74659 5.39201 2.34409 5.68884 2.04724C5.98568 1.7504 6.3882 1.58348 6.80798 1.58337H31.6664Z" stroke="black"/>
</svg>
