<svg width="43" height="38" viewBox="0 0 43 38" fill="none" xmlns="http://www.w3.org/2000/svg">
<rect x="0.5" y="0.5" width="41.75" height="37" fill="black"/>
<rect x="0.5" y="0.5" width="41.75" height="37" stroke="black"/>
<path d="M17.501 2.375C19.1708 2.37507 20.7143 3.25123 21.5752 4.68359L27.3203 14.25H32.0703V8.90625C32.0703 7.91914 32.8645 7.125 33.8516 7.125C34.8385 7.12521 35.6328 7.91927 35.6328 8.90625V14.25H39.1953C41.1619 14.2502 42.7578 15.8458 42.7578 17.8125V20.8926C42.7578 21.9464 42.2898 22.9555 41.4736 23.6309L38.876 25.7988C40.8426 26.927 42.1641 29.0419 42.1641 31.4688C42.1641 35.0757 39.2397 37.9998 35.6328 38C32.0258 38 29.1016 35.0758 29.1016 31.4688C29.1016 30.4 29.3608 29.3906 29.8135 28.5H22.3027C22.0801 29.4944 21.7167 30.4296 21.2344 31.2979C21.8057 31.9954 21.7681 33.0344 21.1152 33.6875L19.4375 35.3652C18.7844 36.0181 17.7529 36.0557 17.0479 35.4844C16.3577 35.8702 15.6151 36.1739 14.8359 36.3965C14.7469 37.2945 13.9902 38 13.0625 38H10.6875C9.76719 38 9.00313 37.2945 8.91406 36.3965C8.13488 36.1739 7.39971 35.8628 6.70215 35.4844C6.00456 36.0557 4.96561 36.0181 4.3125 35.3652L2.63477 33.6807C1.98177 33.0277 1.9445 31.9961 2.51562 31.291C2.12973 30.6009 1.82616 29.8583 1.60352 29.0791C0.705469 28.99 0 28.2324 0 27.3047V24.9297C0.000199248 24.0095 0.705596 23.2453 1.60352 23.1562C1.82617 22.377 2.13713 21.642 2.51562 20.9443C1.9444 20.2467 1.98174 19.2077 2.63477 18.5547L4.3125 16.877C4.96565 16.2242 5.99721 16.1874 6.70215 16.7588C6.84311 16.6846 6.97662 16.6103 7.125 16.5361V4.75C7.125 3.43633 8.18633 2.375 9.5 2.375H17.501ZM35.625 28.5C34.8376 28.5 34.0821 28.8124 33.5254 29.3691C32.9686 29.9259 32.6562 30.6814 32.6562 31.4688C32.6562 32.2561 32.9686 33.0116 33.5254 33.5684C34.0821 34.1251 34.8376 34.4375 35.625 34.4375C36.4124 34.4375 37.1679 34.1251 37.7246 33.5684C38.2814 33.0116 38.5938 32.2561 38.5938 31.4688C38.5938 30.6814 38.2814 29.9259 37.7246 29.3691C37.1679 28.8124 36.4124 28.5 35.625 28.5ZM11.875 21.375C10.6152 21.375 9.4074 21.8758 8.5166 22.7666C7.6258 23.6574 7.125 24.8652 7.125 26.125C7.125 27.3848 7.6258 28.5926 8.5166 29.4834C9.4074 30.3742 10.6152 30.875 11.875 30.875C13.1348 30.875 14.3426 30.3742 15.2334 29.4834C16.1242 28.5926 16.625 27.3848 16.625 26.125C16.625 24.8652 16.1242 23.6574 15.2334 22.7666C14.3426 21.8758 13.1348 21.375 11.875 21.375ZM11.875 14.25H21.7754L17.501 7.125H11.875V14.25Z" fill="white"/>
<path d="M17.501 2.375C19.1708 2.37507 20.7143 3.25123 21.5752 4.68359L27.3203 14.25H32.0703V8.90625C32.0703 7.91914 32.8645 7.125 33.8516 7.125C34.8385 7.12521 35.6328 7.91927 35.6328 8.90625V14.25H39.1953C41.1619 14.2502 42.7578 15.8458 42.7578 17.8125V20.8926C42.7578 21.9464 42.2898 22.9555 41.4736 23.6309L38.876 25.7988C40.8426 26.927 42.1641 29.0419 42.1641 31.4688C42.1641 35.0757 39.2397 37.9998 35.6328 38C32.0258 38 29.1016 35.0758 29.1016 31.4688C29.1016 30.4 29.3608 29.3906 29.8135 28.5H22.3027C22.0801 29.4944 21.7167 30.4296 21.2344 31.2979C21.8057 31.9954 21.7681 33.0344 21.1152 33.6875L19.4375 35.3652C18.7844 36.0181 17.7529 36.0557 17.0479 35.4844C16.3577 35.8702 15.6151 36.1739 14.8359 36.3965C14.7469 37.2945 13.9902 38 13.0625 38H10.6875C9.76719 38 9.00313 37.2945 8.91406 36.3965C8.13488 36.1739 7.39971 35.8628 6.70215 35.4844C6.00456 36.0557 4.96561 36.0181 4.3125 35.3652L2.63477 33.6807C1.98177 33.0277 1.9445 31.9961 2.51562 31.291C2.12973 30.6009 1.82616 29.8583 1.60352 29.0791C0.705469 28.99 0 28.2324 0 27.3047V24.9297C0.000199248 24.0095 0.705596 23.2453 1.60352 23.1562C1.82617 22.377 2.13713 21.642 2.51562 20.9443C1.9444 20.2467 1.98174 19.2077 2.63477 18.5547L4.3125 16.877C4.96565 16.2242 5.99721 16.1874 6.70215 16.7588C6.84311 16.6846 6.97662 16.6103 7.125 16.5361V4.75C7.125 3.43633 8.18633 2.375 9.5 2.375H17.501ZM35.625 28.5C34.8376 28.5 34.0821 28.8124 33.5254 29.3691C32.9686 29.9259 32.6562 30.6814 32.6562 31.4688C32.6562 32.2561 32.9686 33.0116 33.5254 33.5684C34.0821 34.1251 34.8376 34.4375 35.625 34.4375C36.4124 34.4375 37.1679 34.1251 37.7246 33.5684C38.2814 33.0116 38.5938 32.2561 38.5938 31.4688C38.5938 30.6814 38.2814 29.9259 37.7246 29.3691C37.1679 28.8124 36.4124 28.5 35.625 28.5ZM11.875 21.375C10.6152 21.375 9.4074 21.8758 8.5166 22.7666C7.6258 23.6574 7.125 24.8652 7.125 26.125C7.125 27.3848 7.6258 28.5926 8.5166 29.4834C9.4074 30.3742 10.6152 30.875 11.875 30.875C13.1348 30.875 14.3426 30.3742 15.2334 29.4834C16.1242 28.5926 16.625 27.3848 16.625 26.125C16.625 24.8652 16.1242 23.6574 15.2334 22.7666C14.3426 21.8758 13.1348 21.375 11.875 21.375ZM11.875 14.25H21.7754L17.501 7.125H11.875V14.25Z" stroke="white"/>
</svg>
