<svg width="48" height="48" viewBox="0 0 48 48" fill="none" xmlns="http://www.w3.org/2000/svg">
<path d="M42 8H20C19.4696 8 18.9609 8.21071 18.5858 8.58579C18.2107 8.96086 18 9.46957 18 10V32C18 32.5304 18.2107 33.0391 18.5858 33.4142C18.9609 33.7893 19.4696 34 20 34H42C42.5304 34 43.0391 33.7893 43.4142 33.4142C43.7893 33.0391 44 32.5304 44 32V10C44 9.46957 43.7893 8.96086 43.4142 8.58579C43.0391 8.21071 42.5304 8 42 8ZM4 34H18V20H11L4 26.462V34Z" stroke="#A9843E" stroke-width="4" stroke-linejoin="round"/>
<path d="M18 36C18 37.0609 17.5786 38.0783 16.8284 38.8284C16.0783 39.5786 15.0609 40 14 40C12.9391 40 11.9217 39.5786 11.1716 38.8284C10.4214 38.0783 10 37.0609 10 36M40 36C40 37.0609 39.5786 38.0783 38.8284 38.8284C38.0783 39.5786 37.0609 40 36 40C34.9391 40 33.9217 39.5786 33.1716 38.8284C32.4214 38.0783 32 37.0609 32 36" stroke="#A9843E" stroke-width="4" stroke-linecap="round" stroke-linejoin="round"/>
</svg>
