<svg width="40" height="34" viewBox="0 0 40 34" fill="none" xmlns="http://www.w3.org/2000/svg">
<path d="M37.1 1H16.2C15.6961 1 15.2128 1.21071 14.8565 1.58579C14.5002 1.96086 14.3 2.46957 14.3 3V25C14.3 25.5304 14.5002 26.0391 14.8565 26.4142C15.2128 26.7893 15.6961 27 16.2 27H37.1C37.6039 27 38.0872 26.7893 38.4435 26.4142C38.7998 26.0391 39 25.5304 39 25V3C39 2.46957 38.7998 1.96086 38.4435 1.58579C38.0872 1.21071 37.6039 1 37.1 1ZM1 27H14.3V13H7.65L1 19.462V27Z" stroke="white" stroke-width="2" stroke-linejoin="round"/>
<path d="M14.3 29C14.3 30.0609 13.8996 31.0783 13.187 31.8284C12.4743 32.5786 11.5078 33 10.5 33C9.49213 33 8.52558 32.5786 7.81295 31.8284C7.10031 31.0783 6.69995 30.0609 6.69995 29M35.2 29C35.2 30.0609 34.7996 31.0783 34.087 31.8284C33.3743 32.5786 32.4078 33 31.4 33C30.3921 33 29.4256 32.5786 28.7129 31.8284C28.0003 31.0783 27.6 30.0609 27.6 29" stroke="white" stroke-width="2" stroke-linecap="round" stroke-linejoin="round"/>
</svg>
