<svg width="38" height="35" viewBox="0 0 38 35" fill="none" xmlns="http://www.w3.org/2000/svg">
<path fill-rule="evenodd" clip-rule="evenodd" d="M25.9091 12.7273C25.9091 14.415 25.1811 16.0336 23.8854 17.227C22.5897 18.4205 20.8324 19.0909 19 19.0909C17.1676 19.0909 15.4102 18.4205 14.1145 17.227C12.8188 16.0336 12.0909 14.415 12.0909 12.7273C12.0909 11.0395 12.8188 9.42091 14.1145 8.2275C15.4102 7.03408 17.1676 6.36363 19 6.36363C20.8324 6.36363 22.5897 7.03408 23.8854 8.2275C25.1811 9.42091 25.9091 11.0395 25.9091 12.7273ZM22.4545 12.7273C22.4545 13.5711 22.0906 14.3804 21.4427 14.9772C20.7949 15.5739 19.9162 15.9091 19 15.9091C18.0838 15.9091 17.2051 15.5739 16.5572 14.9772C15.9094 14.3804 15.5454 13.5711 15.5454 12.7273C15.5454 11.8834 15.9094 11.0741 16.5572 10.4774C17.2051 9.88068 18.0838 9.54545 19 9.54545C19.9162 9.54545 20.7949 9.88068 21.4427 10.4774C22.0906 11.0741 22.4545 11.8834 22.4545 12.7273Z" fill="black"/>
<path fill-rule="evenodd" clip-rule="evenodd" d="M19 0C8.50682 0 0 7.83523 0 17.5C0 27.1648 8.50682 35 19 35C29.4932 35 38 27.1648 38 17.5C38 7.83523 29.4932 0 19 0ZM3.45455 17.5C3.45455 20.825 4.68609 23.8859 6.75018 26.3168C8.20013 24.5638 10.0703 23.1432 12.2146 22.1657C14.359 21.1882 16.7197 20.6804 19.1123 20.6818C21.4741 20.6793 23.8054 21.1736 25.9283 22.127C28.0512 23.0804 29.9097 24.4677 31.3621 26.1832C32.8587 24.3753 33.8664 22.2651 34.3017 20.0273C34.7371 17.7895 34.5877 15.4884 33.8658 13.3143C33.1439 11.1402 31.8703 9.15576 30.1504 7.52506C28.4305 5.89436 26.3137 4.66432 23.9752 3.93672C21.6367 3.20911 19.1437 3.00486 16.7025 3.34087C14.2613 3.67687 11.942 4.54346 9.9366 5.86895C7.9312 7.19443 6.29731 8.9407 5.17012 10.9633C4.04294 12.9858 3.45486 15.2265 3.45455 17.5ZM19 31.8182C15.4313 31.8235 11.9702 30.6927 9.20291 28.6173C10.3167 27.1483 11.7993 25.9489 13.5247 25.1212C15.25 24.2935 17.1669 23.8621 19.1123 23.8636C21.0333 23.8621 22.927 24.2828 24.6361 25.0907C26.3451 25.8987 27.8202 27.0706 28.9387 28.5091C26.15 30.652 22.6318 31.8234 19 31.8182Z" fill="black"/>
</svg>
